<svg width="28" height="38" viewBox="0 0 28 38" fill="none" xmlns="http://www.w3.org/2000/svg">
<g clip-path="url(#clip0_3154_34328)">
<path d="M26.9719 7.26758L20.8542 1.04063C20.1979 0.372656 19.3083 -0.00585938 18.3823 -0.00585938H3.5C1.56771 0.0015625 0 1.59727 0 3.56406V34.4391C0 36.4059 1.56771 38.0016 3.5 38.0016H24.5C26.4323 38.0016 28 36.4059 28 34.4391V9.79102C28 8.84844 27.6281 7.93555 26.9719 7.26758ZM25.324 8.95234C25.4771 9.1082 25.5792 9.29375 25.6302 9.50156H18.6667V2.41367C18.8708 2.46563 19.0531 2.56953 19.2062 2.72539L25.324 8.95234ZM24.5 35.6266H3.5C2.85833 35.6266 2.33333 35.0922 2.33333 34.4391V3.56406C2.33333 2.91094 2.85833 2.37656 3.5 2.37656H16.3333V10.0953C16.3333 11.0824 17.1135 11.8766 18.0833 11.8766H25.6667V34.4391C25.6667 35.0922 25.1417 35.6266 24.5 35.6266ZM21 17.5172V18.1109C21 18.6008 20.6062 19.0016 20.125 19.0016H7.875C7.39375 19.0016 7 18.6008 7 18.1109V17.5172C7 17.0273 7.39375 16.6266 7.875 16.6266H20.125C20.6062 16.6266 21 17.0273 21 17.5172ZM21 22.2672V22.8609C21 23.3508 20.6062 23.7516 20.125 23.7516H7.875C7.39375 23.7516 7 23.3508 7 22.8609V22.2672C7 21.7773 7.39375 21.3766 7.875 21.3766H20.125C20.6062 21.3766 21 21.7773 21 22.2672ZM21 27.0172V27.6109C21 28.1008 20.6062 28.5016 20.125 28.5016H7.875C7.39375 28.5016 7 28.1008 7 27.6109V27.0172C7 26.5273 7.39375 26.1266 7.875 26.1266H20.125C20.6062 26.1266 21 26.5273 21 27.0172Z" fill="#56A6D5"/>
</g>
<defs>
<clipPath id="clip0_3154_34328">
<rect width="28" height="38" fill="white"/>
</clipPath>
</defs>
</svg>
