<svg width="40" height="40" viewBox="0 0 40 40" fill="none" xmlns="http://www.w3.org/2000/svg">
<path d="M20 0C8.95161 0 0 8.95161 0 20C0 31.0484 8.95161 40 20 40C31.0484 40 40 31.0484 40 20C40 8.95161 31.0484 0 20 0ZM35.5806 12.2581H28.9274C28.2016 8.67742 26.9839 5.62903 25.4435 3.45968C29.879 4.92742 33.5242 8.12903 35.5806 12.2581ZM27.0968 20C27.0968 21.8468 26.9677 23.5645 26.75 25.1613H13.25C13.0323 23.5645 12.9032 21.8468 12.9032 20C12.9032 18.1532 13.0323 16.4355 13.25 14.8387H26.75C26.9677 16.4355 27.0968 18.1532 27.0968 20ZM20 2.58065C22.1694 2.58065 24.9516 6.1371 26.2984 12.2581H13.7016C15.0484 6.1371 17.8306 2.58065 20 2.58065ZM14.5565 3.45968C13.0242 5.62097 11.7984 8.66935 11.0726 12.2581H4.41935C6.47581 8.12903 10.121 4.92742 14.5565 3.45968ZM2.58065 20C2.58065 18.2016 2.85484 16.4677 3.3629 14.8387H10.6613C10.4516 16.4919 10.3226 18.2097 10.3226 20C10.3226 21.7903 10.4435 23.5081 10.6613 25.1613H3.3629C2.85484 23.5323 2.58065 21.7984 2.58065 20ZM4.41935 27.7419H11.0726C11.7984 31.3226 13.0161 34.371 14.5565 36.5403C10.121 35.0726 6.47581 31.871 4.41935 27.7419ZM20 37.4194C17.8306 37.4194 15.0484 33.8629 13.7016 27.7419H26.2984C24.9516 33.8629 22.1694 37.4194 20 37.4194ZM25.4435 36.5403C26.9758 34.379 28.2016 31.3306 28.9274 27.7419H35.5806C33.5242 31.871 29.879 35.0726 25.4435 36.5403ZM29.3387 25.1613C29.5484 23.5081 29.6774 21.7903 29.6774 20C29.6774 18.2097 29.5564 16.4919 29.3387 14.8387H36.6371C37.1452 16.4677 37.4194 18.2016 37.4194 20C37.4194 21.7984 37.1452 23.5323 36.6371 25.1613H29.3387Z" fill="#56A6D5"/>
</svg>
