<svg width="26" height="26" viewBox="0 0 26 26" fill="none" xmlns="http://www.w3.org/2000/svg">
<circle opacity="0.6" cx="13" cy="13" r="13" fill="#B2E5C8"/>
<g clip-path="url(#clip0)">
<path d="M5.7738 13.199L6.4304 13.8693C6.58581 14.028 6.83778 14.028 6.99322 13.8693L12.1378 8.61752V20.1764C12.1378 20.4008 12.316 20.5827 12.5358 20.5827H13.4643C13.6841 20.5827 13.8623 20.4008 13.8623 20.1764V8.61752L19.0069 13.8693C19.1623 14.028 19.4143 14.028 19.5697 13.8693L20.2263 13.199C20.3817 13.0404 20.3817 12.7832 20.2263 12.6245L13.2814 5.535C13.126 5.37636 12.8741 5.37636 12.7186 5.535L5.7738 12.6245C5.61837 12.7832 5.61837 13.0404 5.7738 13.199Z" fill="#57C292"/>
</g>
<defs>
<clipPath id="clip0">
<rect width="14.8571" height="17.3333" fill="white" transform="translate(5.57129 4.33301)"/>
</clipPath>
</defs>
</svg>
