<svg width="54" height="54" viewBox="0 0 54 54" fill="none" xmlns="http://www.w3.org/2000/svg">
<path fill-rule="evenodd" clip-rule="evenodd" d="M29.1094 14.3438C29.1094 15.2757 29.8649 16.0312 30.7969 16.0312C31.7289 16.0312 32.4844 15.2757 32.4844 14.3438C32.4844 13.4118 31.7289 12.6562 30.7969 12.6562C29.8649 12.6562 29.1094 13.4118 29.1094 14.3438ZM27.5282 13.5C27.9029 12.0443 29.2243 10.9688 30.7969 10.9688C32.3695 10.9688 33.6909 12.0443 34.0655 13.5H38.8125C42.5404 13.5 45.5625 16.5221 45.5625 20.25V21.0938C45.5625 24.8217 42.5404 27.8438 38.8125 27.8438H27.3155C26.9409 29.2994 25.6195 30.375 24.0469 30.375C22.4719 30.375 21.149 29.2962 20.7766 27.8373C20.7423 27.8416 20.7073 27.8438 20.6719 27.8438H15.6094C12.8134 27.8438 10.5469 30.1103 10.5469 32.9062V33.75C10.5469 36.5459 12.8134 38.8125 15.6094 38.8125H36.2812C36.7472 38.8125 37.125 39.1903 37.125 39.6562C37.125 40.1222 36.7472 40.5 36.2812 40.5H15.6094C11.8815 40.5 8.85938 37.4779 8.85938 33.75V32.9062C8.85938 29.1783 11.8815 26.1562 15.6094 26.1562H20.6719C20.7073 26.1562 20.7423 26.1584 20.7766 26.1627C21.149 24.7038 22.4719 23.625 24.0469 23.625C25.6195 23.625 26.9409 24.7006 27.3155 26.1562H38.8125C41.6084 26.1562 43.875 23.8897 43.875 21.0938V20.25C43.875 17.4541 41.6084 15.1875 38.8125 15.1875H34.0655C33.6909 16.6432 32.3695 17.7188 30.7969 17.7188C29.2243 17.7188 27.9029 16.6432 27.5282 15.1875H16.3468C15.9721 16.6432 14.6507 17.7188 13.0781 17.7188C11.2142 17.7188 9.70312 16.2077 9.70312 14.3438C9.70312 12.4798 11.2142 10.9688 13.0781 10.9688C14.6507 10.9688 15.9721 12.0443 16.3468 13.5H27.5282ZM11.3906 14.3438C11.3906 15.2757 12.1461 16.0312 13.0781 16.0312C14.0101 16.0312 14.7656 15.2757 14.7656 14.3438C14.7656 13.4118 14.0101 12.6562 13.0781 12.6562C12.1461 12.6562 11.3906 13.4118 11.3906 14.3438ZM24.0469 28.6875C23.1149 28.6875 22.3594 27.932 22.3594 27C22.3594 26.068 23.1149 25.3125 24.0469 25.3125C24.9789 25.3125 25.7344 26.068 25.7344 27C25.7344 27.932 24.9789 28.6875 24.0469 28.6875Z" fill="#2581B1"/>
<path fill-rule="evenodd" clip-rule="evenodd" d="M39.234 32.0625C38.5029 32.0625 37.855 32.5332 37.6291 33.2285L36.8713 35.5606H34.4193C33.6882 35.5606 33.0403 36.0313 32.8144 36.7266C32.5884 37.4219 32.8359 38.1836 33.4274 38.6133L35.4112 40.0546L34.6534 42.3867C34.4275 43.082 34.675 43.8437 35.2664 44.2734C35.8579 44.7031 36.6588 44.7031 37.2502 44.2734L39.234 42.8321L41.2178 44.2734C41.8092 44.7031 42.6101 44.7031 43.2015 44.2734C43.793 43.8437 44.0405 43.082 43.8146 42.3867L43.0568 40.0546L45.0406 38.6133C45.632 38.1836 45.8795 37.4219 45.6536 36.7266C45.4277 36.0313 44.7798 35.5606 44.0487 35.5606H41.5966L40.8389 33.2285C40.613 32.5332 39.9651 32.0625 39.234 32.0625ZM39.234 33.75L38.0974 37.2481H34.4193L37.3949 39.41L36.2583 42.9081L39.234 40.7462L42.2097 42.9081L41.0731 39.41L44.0487 37.2481H40.3706L39.234 33.75Z" fill="#56A6D5"/>
</svg>
