<svg width="54" height="54" viewBox="0 0 54 54" fill="none" xmlns="http://www.w3.org/2000/svg">
<path fill-rule="evenodd" clip-rule="evenodd" d="M43.4578 47.1366L46.6496 42.1671L28.9013 30.7678L25.7095 35.7373L43.4578 47.1366ZM48.0695 43.079C48.5732 42.2949 48.3458 41.2509 47.5616 40.7472L29.8133 29.3479C29.0291 28.8443 27.9851 29.0717 27.4815 29.8559L24.2897 34.8254C23.786 35.6096 24.0134 36.6536 24.7976 37.1572L42.5459 48.5565C43.3301 49.0601 44.3741 48.8327 44.8777 48.0486L48.0695 43.079Z" fill="#2581B1"/>
<path fill-rule="evenodd" clip-rule="evenodd" d="M29.489 29.5424C29.5228 30.0072 29.1734 30.4113 28.7087 30.4451L23.5193 30.8224L25.3345 35.6986C25.4971 36.1353 25.2748 36.6211 24.8381 36.7837C24.4014 36.9463 23.9156 36.724 23.753 36.2873L21.5453 30.3568C21.4526 30.1079 21.4826 29.8299 21.6261 29.6065C21.7696 29.383 22.01 29.2402 22.2749 29.2209L28.5863 28.7621C29.0511 28.7283 29.4552 29.0776 29.489 29.5424Z" fill="#2581B1"/>
<path fill-rule="evenodd" clip-rule="evenodd" d="M39.9335 46.3778L44.4932 39.2785L45.9131 40.1904L41.3534 47.2898L39.9335 46.3778Z" fill="#2581B1"/>
<path fill-rule="evenodd" clip-rule="evenodd" d="M25.4299 16.2261C25.7883 16.524 25.8374 17.056 25.5395 17.4143L19.2283 25.0081C19.0841 25.1816 18.8764 25.2901 18.6517 25.3094C18.4269 25.3287 18.2038 25.2573 18.0321 25.1109L15.0621 22.5797C14.7074 22.2774 14.665 21.7449 14.9672 21.3902C15.2695 21.0356 15.802 20.9931 16.1567 21.2954L18.4765 23.2725L24.2417 16.3357C24.5396 15.9773 25.0716 15.9283 25.4299 16.2261Z" fill="#56A6D5"/>
<path fill-rule="evenodd" clip-rule="evenodd" d="M11.8125 7.59375C11.3465 7.59375 10.9688 7.97151 10.9688 8.4375V43.875C10.9688 44.341 11.3465 44.7188 11.8125 44.7188H38.8125C39.2785 44.7188 39.6562 45.0965 39.6562 45.5625C39.6562 46.0285 39.2785 46.4062 38.8125 46.4062H11.8125C10.4145 46.4062 9.28125 45.273 9.28125 43.875V8.4375C9.28125 7.03953 10.4145 5.90625 11.8125 5.90625H39.6562C41.0542 5.90625 42.1875 7.03953 42.1875 8.4375V37.5469C42.1875 38.0129 41.8097 38.3906 41.3438 38.3906C40.8778 38.3906 40.5 38.0129 40.5 37.5469V8.4375C40.5 7.97151 40.1222 7.59375 39.6562 7.59375H11.8125Z" fill="#2581B1"/>
<path fill-rule="evenodd" clip-rule="evenodd" d="M26.1562 21.0938C26.1562 20.6278 26.534 20.25 27 20.25H36.2812C36.7472 20.25 37.125 20.6278 37.125 21.0938C37.125 21.5597 36.7472 21.9375 36.2812 21.9375H27C26.534 21.9375 26.1562 21.5597 26.1562 21.0938Z" fill="#2581B1"/>
</svg>
