<svg width="54" height="54" viewBox="0 0 54 54" fill="none" xmlns="http://www.w3.org/2000/svg">
<path fill-rule="evenodd" clip-rule="evenodd" d="M14.3438 30.9385H11.8125L11.8125 43.0322L14.3438 43.0322V30.9385ZM11.8125 29.251C10.8805 29.251 10.125 30.0065 10.125 30.9385V43.0322C10.125 43.9642 10.8805 44.7197 11.8125 44.7197H14.3438C15.2757 44.7197 16.0312 43.9642 16.0312 43.0322V30.9385C16.0312 30.0065 15.2757 29.251 14.3438 29.251H11.8125Z" fill="#2581B1"/>
<path fill-rule="evenodd" clip-rule="evenodd" d="M23.625 24.1328L21.0938 24.1328L21.0937 43.0328L23.625 43.0328V24.1328ZM21.0938 22.4453C20.1618 22.4453 19.4062 23.2008 19.4062 24.1328V43.0328C19.4062 43.9648 20.1618 44.7203 21.0937 44.7203H23.625C24.557 44.7203 25.3125 43.9648 25.3125 43.0328V24.1328C25.3125 23.2008 24.557 22.4453 23.625 22.4453H21.0938Z" fill="#2581B1"/>
<path fill-rule="evenodd" clip-rule="evenodd" d="M32.9062 28.4629H30.375L30.375 43.0316H32.9062V28.4629ZM30.375 26.7754C29.443 26.7754 28.6875 27.5309 28.6875 28.4629V43.0316C28.6875 43.9636 29.443 44.7191 30.375 44.7191H32.9062C33.8382 44.7191 34.5938 43.9636 34.5938 43.0316V28.4629C34.5938 27.5309 33.8382 26.7754 32.9062 26.7754H30.375Z" fill="#2581B1"/>
<path fill-rule="evenodd" clip-rule="evenodd" d="M42.1875 18.5625H39.6562L39.6562 43.0312H42.1875V18.5625ZM39.6562 16.875C38.7243 16.875 37.9688 17.6305 37.9688 18.5625V43.0312C37.9688 43.9632 38.7243 44.7188 39.6562 44.7188H42.1875C43.1195 44.7188 43.875 43.9632 43.875 43.0312V18.5625C43.875 17.6305 43.1195 16.875 42.1875 16.875H39.6562Z" fill="#2581B1"/>
<path fill-rule="evenodd" clip-rule="evenodd" d="M44.4539 6.55797C44.793 6.87765 44.8087 7.41165 44.489 7.7507L30.5671 22.5163C30.2612 22.8408 29.7556 22.8712 29.4131 22.5857L22.4612 16.7925L15.8305 24.5933C15.7758 24.6576 15.7118 24.7134 15.6406 24.7587L11 27.7118C10.6068 27.962 10.0853 27.8461 9.83514 27.453C9.58496 27.0599 9.70085 26.5383 10.094 26.2882L14.6272 23.4034L21.7166 15.0629C22.0163 14.7103 22.5441 14.6649 22.8996 14.9612L29.8837 20.7813L43.2612 6.59305C43.5809 6.254 44.1149 6.2383 44.4539 6.55797Z" fill="#56A6D5"/>
</svg>
