<svg xmlns="http://www.w3.org/2000/svg" width="48" height="38" fill="none" viewBox="0 0 48 38">
    <path fill="#BFE0EE" d="M0 25.221C0 33.461 5.007 38 10.705 38c5.18 0 9.151-4.035 9.151-8.912 0-5.044-3.453-8.575-8.288-8.575-.863 0-2.072.168-2.244.168.518-5.38 5.525-12.106 11.05-15.637L13.986 0C6.043 5.549 0 14.965 0 25.221zm27.626 0C27.626 33.461 32.633 38 38.33 38c5.18 0 9.324-4.035 9.324-8.912 0-5.044-3.626-8.575-8.46-8.575-.864 0-2.073.168-2.245.168.69-5.38 5.525-12.106 11.05-15.637L41.611 0C33.67 5.549 27.627 14.965 27.627 25.221z"/>
</svg>
