<svg width="36" height="36" viewBox="0 0 36 36" fill="none" xmlns="http://www.w3.org/2000/svg">
<path d="M18 2.25C22.3453 2.25 25.875 5.77969 25.875 10.125C25.875 14.4703 22.3453 18 18 18C13.6547 18 10.125 14.4703 10.125 10.125C10.125 5.77969 13.6547 2.25 18 2.25ZM27 24.75C30.7195 24.75 33.75 27.7805 33.75 31.5V33.75H2.25V31.5C2.25 27.7805 5.28047 24.75 9 24.75C14.9766 24.75 13.732 25.875 18 25.875C22.282 25.875 21.0164 24.75 27 24.75ZM18 0C12.4102 0 7.875 4.53516 7.875 10.125C7.875 15.7148 12.4102 20.25 18 20.25C23.5898 20.25 28.125 15.7148 28.125 10.125C28.125 4.53516 23.5898 0 18 0ZM27 22.5C20.5031 22.5 22.0078 23.625 18 23.625C14.0063 23.625 15.4898 22.5 9 22.5C4.02891 22.5 0 26.5289 0 31.5V33.75C0 34.9945 1.00547 36 2.25 36H33.75C34.9945 36 36 34.9945 36 33.75V31.5C36 26.5289 31.9711 22.5 27 22.5Z" fill="#56A6D5"/>
</svg>
